{
	"asset":{
		"generator":"Khronos glTF Blender I/O v4.3.47",
		"version":"2.0"
	},
	"extensionsUsed":[
		"KHR_materials_emissive_strength"
	],
	"scene":0,
	"scenes":[
		{
			"name":"Scene",
			"nodes":[
				0,
				1
			]
		}
	],
	"nodes":[
		{
			"mesh":0,
			"name":"Cube",
			"scale":[
				1,
				0.12071447819471359,
				0.3070366382598877
			]
		},
		{
			"mesh":1,
			"name":"Text",
			"scale":[
				0.2645982801914215,
				0.2645982801914215,
				0.2645982801914215
			],
			"translation":[
				0,
				0.34595197439193726,
				0
			]
		}
	],
	"materials":[
		{
			"doubleSided":true,
			"name":"Material.001",
			"pbrMetallicRoughness":{
				"baseColorFactor":[
					0.0018211553106084466,
					0.00439106859266758,
					0.4968969225883484,
					1
				],
				"metallicFactor":0,
				"roughnessFactor":0.5
			}
		},
		{
			"doubleSided":true,
			"emissiveFactor":[
				1,
				1,
				1
			],
			"extensions":{
				"KHR_materials_emissive_strength":{
					"emissiveStrength":11.999998092651367
				}
			},
			"name":"Material.003",
			"pbrMetallicRoughness":{
				"baseColorFactor":[
					0.800000011920929,
					0.800000011920929,
					0.800000011920929,
					1
				],
				"metallicFactor":0,
				"roughnessFactor":0.5
			}
		}
	],
	"meshes":[
		{
			"name":"Cube.001",
			"primitives":[
				{
					"attributes":{
						"POSITION":0,
						"NORMAL":1,
						"TEXCOORD_0":2
					},
					"indices":3,
					"material":0
				}
			]
		},
		{
			"name":"Text.001",
			"primitives":[
				{
					"attributes":{
						"POSITION":4,
						"NORMAL":5
					},
					"indices":6,
					"material":1
				}
			]
		}
	],
	"accessors":[
		{
			"bufferView":0,
			"componentType":5126,
			"count":1649,
			"max":[
				1.009926676750183,
				2.2590582370758057,
				1.01876699924469
			],
			"min":[
				-1.009931206703186,
				-2.259315013885498,
				-1.0190434455871582
			],
			"type":"VEC3"
		},
		{
			"bufferView":1,
			"componentType":5126,
			"count":1649,
			"type":"VEC3"
		},
		{
			"bufferView":2,
			"componentType":5126,
			"count":1649,
			"type":"VEC2"
		},
		{
			"bufferView":3,
			"componentType":5123,
			"count":9216,
			"type":"SCALAR"
		},
		{
			"bufferView":4,
			"componentType":5126,
			"count":74170,
			"max":[
				2.1949994564056396,
				-0.2759173512458801,
				0.3012675642967224
			],
			"min":[
				-2.149003744125366,
				-0.3808775544166565,
				-0.3861294984817505
			],
			"type":"VEC3"
		},
		{
			"bufferView":5,
			"componentType":5126,
			"count":74170,
			"type":"VEC3"
		},
		{
			"bufferView":6,
			"componentType":5125,
			"count":203352,
			"type":"SCALAR"
		}
	],
	"bufferViews":[
		{
			"buffer":0,
			"byteLength":19788,
			"byteOffset":0,
			"target":34962
		},
		{
			"buffer":0,
			"byteLength":19788,
			"byteOffset":19788,
			"target":34962
		},
		{
			"buffer":0,
			"byteLength":13192,
			"byteOffset":39576,
			"target":34962
		},
		{
			"buffer":0,
			"byteLength":18432,
			"byteOffset":52768,
			"target":34963
		},
		{
			"buffer":0,
			"byteLength":890040,
			"byteOffset":71200,
			"target":34962
		},
		{
			"buffer":0,
			"byteLength":890040,
			"byteOffset":961240,
			"target":34962
		},
		{
			"buffer":0,
			"byteLength":813408,
			"byteOffset":1851280,
			"target":34963
		}
	],
	"buffers":[
		{
			"byteLength":2664688,
			"uri":"behance.bin"
		}
	]
}
