<svg width="403" height="182" viewBox="0 0 403 182" fill="none" xmlns="http://www.w3.org/2000/svg">
<g clip-path="url(#clip0_2_525)">
<mask id="path-1-inside-1_2_525" fill="white">
<path d="M13.2563 39.2651C17.4716 17.5796 38.4683 3.41713 60.1538 7.63236L363.712 66.6382C385.398 70.8534 399.56 91.8501 395.345 113.536L389.721 142.468C385.506 164.153 364.509 178.316 342.824 174.101L39.2652 115.095C17.5797 110.88 3.4172 89.8829 7.63244 68.1974L13.2563 39.2651Z"/>
</mask>
<path d="M13.2563 39.2651C17.4716 17.5796 38.4683 3.41713 60.1538 7.63236L363.712 66.6382C385.398 70.8534 399.56 91.8501 395.345 113.536L389.721 142.468C385.506 164.153 364.509 178.316 342.824 174.101L39.2652 115.095C17.5797 110.88 3.4172 89.8829 7.63244 68.1974L13.2563 39.2651Z" fill="#0000FF"/>
<path d="M120.047 78.2124C118.988 83.6604 113.703 87.2682 108.206 86.1997L88.3278 82.3358L95.0061 47.9788L114.001 51.671C118.516 52.5487 121.442 56.8867 120.564 61.4022C120.03 64.1508 118.228 66.3472 115.724 67.4394C115.665 67.479 115.597 67.5676 115.587 67.6167C115.627 67.6753 115.657 67.783 115.696 67.8416C119.121 70.1373 120.83 74.1877 120.047 78.2124ZM107.636 62.4037L108.103 59.9987C108.208 59.4588 107.892 58.9899 107.352 58.8849C106.812 58.78 106.343 59.0963 106.238 59.6362L105.771 62.0412C105.647 62.6792 105.884 63.031 106.522 63.155C107.062 63.2599 107.531 62.9436 107.636 62.4037ZM104.955 76.1956L105.422 73.7906C105.527 73.2507 105.211 72.7817 104.671 72.6768C104.131 72.5718 103.662 72.8882 103.557 73.4281L103.09 75.833C102.966 76.4711 103.203 76.8228 103.841 76.9469C104.381 77.0518 104.85 76.7355 104.955 76.1956ZM136.515 80.9041L149.816 83.4895L146.419 93.6277L119.866 88.4663L126.545 54.1093L154.472 59.5378L151.075 69.676L139.148 67.3576C138.609 67.2527 138.14 67.569 138.035 68.1089C137.93 68.6488 138.246 69.1178 138.786 69.2227L148.848 71.1785L145.614 80.7372L136.878 79.039C136.338 78.934 135.869 79.2504 135.764 79.7903C135.659 80.3302 135.975 80.7991 136.515 80.9041ZM166.499 84.7968C165.959 84.6919 165.49 85.0082 165.385 85.5481L163.181 96.8859L149.488 94.2241L156.166 59.8671L169.86 62.5289L167.656 73.8667C167.551 74.4066 167.867 74.8756 168.407 74.9805C168.947 75.0855 169.416 74.7691 169.521 74.2293L171.725 62.8915L185.468 65.5628L178.789 99.9197L165.047 97.2484L167.25 85.9106C167.355 85.3707 167.039 84.9018 166.499 84.7968ZM196.946 94.9427C196.406 94.8377 195.937 95.1541 195.832 95.694L194.42 102.958L180.039 100.163L191.282 66.693L212.78 70.8717L210.666 106.116L196.285 103.321L197.697 96.0565C197.802 95.5166 197.486 95.0476 196.946 94.9427ZM198.942 79.6934L198.131 83.8654C198.007 84.5034 198.244 84.8551 198.882 84.9792C199.422 85.0841 199.891 84.7678 199.996 84.2279L200.807 80.056C200.912 79.5161 200.596 79.0471 200.056 78.9422C199.418 78.8181 199.066 79.0554 198.942 79.6934ZM225.814 91.0801L224.901 108.883L211.894 106.355L218.572 71.9977L237.665 75.7089L236.724 93.9138C236.687 94.3651 237.053 94.8436 237.445 94.92C237.494 94.9295 237.602 94.8995 237.651 94.909C238.22 94.8667 238.532 94.5709 238.608 94.1782C238.618 94.1291 238.627 94.0801 238.637 94.031L239.579 76.081L252.586 78.6092L245.907 112.966L226.766 109.245L227.727 91.1972C227.821 90.4515 227.31 90.1993 226.966 90.1325C226.868 90.1134 226.024 90.0003 225.843 90.9329C225.833 90.9819 225.824 91.031 225.814 91.0801ZM265.484 117.637L265.435 117.628C255.52 115.701 249.036 106.087 250.963 96.1722C251.888 91.4114 254.631 87.2584 258.676 84.5301C262.74 81.7036 267.559 80.7558 272.418 81.7003L272.468 81.7098C282.087 83.5797 288.441 92.557 287.121 102.233L270.09 98.9223L271.139 93.5234C271.244 92.9835 270.928 92.5145 270.388 92.4096C269.848 92.3046 269.379 92.6209 269.274 93.1608L266.812 105.824C266.708 106.364 267.024 106.833 267.564 106.938C268.202 107.062 268.554 106.824 268.678 106.186L269.727 100.787L286.758 104.098C285.635 108.566 282.969 112.326 279.217 114.857C275.172 117.585 270.343 118.582 265.484 117.637ZM301.973 113.066L315.274 115.651L311.877 125.789L285.324 120.628L292.003 86.2711L319.93 91.6996L316.533 101.838L304.606 99.5194C304.066 99.4144 303.597 99.7308 303.492 100.271C303.388 100.811 303.704 101.28 304.244 101.384L314.305 103.34L311.072 112.899L302.336 111.201C301.796 111.096 301.327 111.412 301.222 111.952C301.117 112.492 301.433 112.961 301.973 113.066Z" fill="white"/>
</g>
<path d="M59.963 8.61399L363.522 67.6198L363.903 65.6566L60.3446 6.65074L59.963 8.61399ZM394.363 113.345L388.74 142.277L390.703 142.659L396.327 113.726L394.363 113.345ZM343.015 173.119L39.456 114.113L39.0744 116.076L342.633 175.082L343.015 173.119ZM8.61407 68.3882L14.2379 39.4559L12.2747 39.0743L6.65081 68.0066L8.61407 68.3882ZM39.456 114.113C18.3126 110.003 4.50421 89.5316 8.61407 68.3882L6.65081 68.0066C2.3302 90.2342 16.8467 111.756 39.0744 116.076L39.456 114.113ZM388.74 142.277C384.63 163.421 364.158 177.229 343.015 173.119L342.633 175.082C364.861 179.403 386.382 164.886 390.703 142.659L388.74 142.277ZM363.522 67.6198C384.665 71.7297 398.473 92.2015 394.363 113.345L396.327 113.726C400.647 91.4988 386.131 69.9772 363.903 65.6566L363.522 67.6198ZM60.3446 6.65074C38.1169 2.33012 16.5953 16.8466 12.2747 39.0743L14.2379 39.4559C18.3478 18.3125 38.8196 4.50413 59.963 8.61399L60.3446 6.65074Z" fill="white" mask="url(#path-1-inside-1_2_525)"/>
<defs>
<clipPath id="clip0_2_525">
<path d="M13.2563 39.2651C17.4716 17.5796 38.4683 3.41713 60.1538 7.63236L363.712 66.6382C385.398 70.8534 399.56 91.8501 395.345 113.536L389.721 142.468C385.506 164.153 364.509 178.316 342.824 174.101L39.2652 115.095C17.5797 110.88 3.4172 89.8829 7.63244 68.1974L13.2563 39.2651Z" fill="white"/>
</clipPath>
</defs>
</svg>
