<svg width="348" height="349" viewBox="0 0 348 349" fill="none" xmlns="http://www.w3.org/2000/svg"><path d="M181.948 12.628C202.917-10.517 241.2-.23 247.82 30.33l1.16 5.353c3.977 18.362 20.603 31.155 39.317 30.256l5.456-.262c31.146-1.496 50.963 32.926 34.097 59.229l-2.952 4.606c-10.135 15.806-7.4 36.641 6.468 49.276l4.041 3.684c23.08 21.029 12.822 59.422-17.649 66.062l-5.337 1.163c-18.31 3.988-31.067 20.661-30.17 39.43l.262 5.471c1.49 31.236-32.832 51.11-59.06 34.195l-4.594-2.962c-15.759-10.163-36.534-7.419-49.135 6.488l-3.673 4.053c-20.969 23.147-59.251 12.858-65.871-17.7l-1.16-5.353c-3.978-18.362-20.602-31.155-39.318-30.255l-5.455.261c-31.147 1.495-50.963-32.927-34.098-59.23l2.954-4.607c10.134-15.806 7.4-36.639-6.469-49.276l-4.042-3.684c-23.079-21.029-12.821-59.421 17.65-66.06l5.338-1.163c18.31-3.99 31.066-20.662 30.17-39.431l-.262-5.471c-1.492-31.236 32.831-51.11 59.06-34.196l4.592 2.962c15.761 10.164 36.536 7.421 49.135-6.487z" fill="#00F"/><path d="M140.975 300.055c68.797 18.487 139.511-22.457 157.944-91.452 18.435-68.994-22.393-139.912-91.189-158.399S68.22 72.662 49.785 141.655c-18.434 68.995 22.393 139.913 91.19 158.4Z" fill="#00F" stroke="#fff" stroke-width=".909" stroke-miterlimit="10"/><path d="M152.437 257.171c45.18 12.141 91.62-14.748 103.726-60.057s-14.706-91.883-59.886-104.024c-45.179-12.14-91.619 14.748-103.725 60.058-12.106 45.309 14.706 91.883 59.885 104.023Z" fill="#00F" stroke="#fff" stroke-width=".909" stroke-miterlimit="10"/><mask id="a" style="mask-type:luminance" maskUnits="userSpaceOnUse" x="30" y="30" width="291" height="292"><path d="M320.063 92.38 91.338 30.917l-61.275 229.34 228.725 61.463z" fill="#fff"/></mask><g mask="url(#a)" fill="#fff"><path d="m197.795 60.157-3.671 14.693 5.713 1.436c1.99.5 3.821.202 5.49-.873 1.676-1.096 2.781-2.67 3.295-4.727s.28-3.968-.687-5.705q-1.442-2.639-4.426-3.388zm-1.263 13.335 2.749-10.999 3.767.947c1.485.373 2.589 1.209 3.269 2.495s.836 2.709.443 4.283-1.201 2.755-2.405 3.567-2.569 1.028-4.057.654zm17.729-4.212-1.769-.652-3.731 10.2 1.769.65 1.978-5.405c.41-1.122 1.007-1.805 1.823-2.083s1.631-.233 2.491.13l.678-1.857q-2.286-.842-3.866.73zm12.304 7.616q-.34-2.525-2.757-3.677c-1.36-.647-2.765-.696-4.188-.156-1.421.54-2.479 1.516-3.152 2.938-.674 1.422-.769 2.88-.287 4.327.48 1.446 1.414 2.489 2.775 3.136q2.416 1.152 4.584-.18l-.794 1.675 1.689.805 4.613-9.738-1.689-.805zm-6.621 5.034q-1.456-.694-1.977-2.16c-.338-.995-.28-1.97.191-2.964.47-.993 1.188-1.654 2.161-2.002.984-.367 1.957-.31 2.927.153.991.472 1.65 1.192 1.988 2.188.346.977.288 1.952-.182 2.945-.471.993-1.188 1.654-2.17 2.021-.975.348-1.947.29-2.938-.181m19.281 2.589c.004-1.705-.744-3.049-2.225-4.02-1.282-.842-2.679-1.112-4.167-.769-1.475.325-2.647 1.133-3.509 2.455s-1.132 2.723-.849 4.227c.281 1.504 1.087 2.68 2.369 3.52 1.464.96 2.99 1.11 4.576.417l-.838 1.286c-1.123 1.72-2.946 2.024-4.823.792-1.462-.96-2.125-2.119-1.951-3.453l-1.881-.122c-.193 1.917.816 3.69 2.838 5.018 1.265.829 2.596 1.16 3.984 1.01s2.511-.886 3.385-2.226l5.659-8.673-1.552-1.02zm-1.903 2.915c-.602.924-1.405 1.483-2.421 1.695-1.016.213-1.974.023-2.895-.581s-1.479-1.41-1.691-2.428-.022-1.98.58-2.904q.886-1.359 2.41-1.677c1.016-.213 1.974-.023 2.895.58.921.605 1.479 1.41 1.691 2.43q.318 1.527-.569 2.885m21.127 10.821c-1.074-1.073-2.3-1.439-3.707-1.098.395-1.352.071-2.534-.957-3.56-.997-.997-2.176-1.347-3.507-1.053l1.023-1.03-1.335-1.334-7.639 7.692 1.335 1.334 4.247-4.277c1.543-1.554 3.166-1.496 4.287-.377.997.995.938 2.316-.239 3.5l-4.706 4.739 1.334 1.333 4.249-4.276c1.574-1.585 3.059-1.603 4.209-.454 1.028 1.027.999 2.378-.176 3.562l-4.707 4.739 1.335 1.333 4.752-4.785c1.895-1.907 1.92-4.272.202-5.988m6.138 18.49q.376-.199.714-.45c1.266-.939 2.048-2.136 2.33-3.61.312-1.469-.007-2.848-.943-4.118q-1.481-2.01-3.724-2.325c-1.496-.209-2.899.184-4.2 1.148-1.317.978-2.091 2.223-2.33 3.719-.208 1.5.192 2.953 1.204 4.328 1.257 1.705 2.853 2.487 4.783 2.375l-.221-1.828c-1.234.108-2.267-.419-3.113-1.567-1.218-1.653-1.201-3.523.125-4.964zm.678-7.124c1.026 1.392 1.006 3.184-.451 4.667l-4.282-5.812c1.718-.871 3.541-.473 4.733 1.145m16.274 25.52a38 38 0 0 0-2.361 3.398q-1.401 2.243-2.067 3.545-1.05-.436-3.894-1.242-2.31-.65-4.04-.913.412-.465.913-1.192a71 71 0 0 0 1.986-3.048q.244-.39 1.552-2.676 1.515.56 4.217 1.32 2.005.565 3.694.808m10.481 25.024-15.05 1.291.502 5.887c.175 2.047 1.052 3.689 2.609 4.923 1.577 1.234 3.42 1.769 5.527 1.589s3.832-1.024 5.157-2.505q2.02-2.228 1.757-5.298zm-12.986 3.135 11.265-.968.332 3.881c.131 1.531-.298 2.849-1.291 3.912s-2.282 1.672-3.895 1.811c-1.613.138-2.988-.243-4.145-1.12-1.158-.88-1.805-2.104-1.935-3.637zm9.575 15.458.046-1.882-10.786-.261-.046 1.882 5.717.139c1.186.027 2.02.373 2.542 1.056.525.684.743 1.468.677 2.398l1.964.048q.058-2.434-1.925-3.424zm-3.013 14.224q2.285-1.132 2.603-3.808c.178-1.503-.225-2.861-1.194-4.043-.967-1.183-2.232-1.879-3.795-2.066-1.566-.187-2.978.189-4.196 1.112-1.218.922-1.906 2.147-2.086 3.652q-.317 2.674 1.64 4.313l-1.844-.219-.222 1.869 10.713 1.279.223-1.869zm-6.896-4.702q.19-1.612 1.415-2.577c.836-.641 1.779-.9 2.872-.769s1.949.604 2.59 1.42c.665.822.921 1.767.794 2.842-.131 1.096-.602 1.955-1.438 2.596-.816.643-1.759.901-2.851.77-1.094-.131-1.951-.604-2.614-1.423-.641-.817-.898-1.764-.768-2.859m3.767 19.086c1.606-.556 2.627-1.704 3.058-3.425.373-1.492.169-2.904-.641-4.2-.791-1.292-1.936-2.137-3.464-2.522-1.528-.383-2.935-.18-4.26.58s-2.167 1.91-2.54 3.4c-.424 1.701-.065 3.196 1.107 4.473l-1.485-.374c-1.99-.5-2.873-2.128-2.327-4.31.424-1.701 1.299-2.708 2.613-2.98l-.502-1.821c-1.869.445-3.209 1.981-3.797 4.333-.366 1.47-.243 2.839.354 4.105.596 1.265 1.657 2.09 3.207 2.478l10.025 2.52.451-1.804zm-3.37-.847c-1.068-.269-1.857-.847-2.391-1.74-.533-.891-.668-1.862-.4-2.934.266-1.069.842-1.862 1.733-2.396.89-.536 1.857-.672 2.925-.403q1.57.396 2.369 1.733c.535.893.67 1.864.402 2.934s-.844 1.864-1.733 2.398q-1.335.801-2.905.408m-3.478 23.42c.661-1.359.609-2.632-.165-3.852 1.396-.063 2.402-.75 3.033-2.051.613-1.262.563-2.488-.143-3.65l1.297.634.82-1.69-9.683-4.73-.82 1.69 5.384 2.63c1.956.956 2.424 2.505 1.735 3.924-.612 1.262-1.87 1.632-3.361.904l-5.965-2.915-.821 1.691 5.383 2.629c1.995.975 2.492 2.371 1.784 3.827-.632 1.301-1.909 1.711-3.4.981l-5.965-2.913-.82 1.691 6.022 2.94c2.401 1.174 4.628.436 5.685-1.74m-15.267 11.986q.31.292.658.531c1.297.896 2.679 1.246 4.161 1.034 1.488-.182 2.683-.932 3.576-2.235q1.413-2.058.978-4.288c-.288-1.488-1.116-2.689-2.449-3.607-1.35-.934-2.776-1.261-4.263-1-1.484.29-2.722 1.143-3.689 2.551-1.199 1.747-1.416 3.514-.682 5.308l1.652-.804c-.505-1.137-.344-2.286.463-3.463 1.162-1.694 2.931-2.286 4.72-1.497zm6.938-1.675c-.979 1.427-2.675 1.99-4.547 1.092l4.085-5.955c1.381 1.347 1.6 3.204.462 4.863m-18.845 23.655a37 37 0 0 0-3.962-1.135q-2.566-.599-4.006-.808.069-1.135-.093-4.088-.134-2.398-.45-4.12.57.238 1.418.476 1.467.422 3.512.893.446.108 3.021.602-.036 1.618.124 4.421.117 2.08.436 3.759m-20.119 18.181-6.143-13.882-5.398 2.402c-1.879.837-3.143 2.206-3.801 4.089-.649 1.903-.553 3.832.307 5.774.86 1.944 2.22 3.308 4.055 4.084q2.763 1.19 5.581-.063zm-7.21-11.319 4.598 10.392-3.558 1.586c-1.404.624-2.792.648-4.12.052-1.328-.597-2.326-1.624-2.986-3.11-.658-1.489-.746-2.921-.295-4.307.451-1.388 1.399-2.403 2.801-3.027zm-11.463 14.063 1.79-.572-3.277-10.308-1.789.571 1.736 5.463c.36 1.135.307 2.038-.166 2.757-.473.718-1.141 1.182-2.038 1.424l.597 1.876q2.311-.74 2.596-2.943zm-14.417 1.789q1.814 1.797 4.44 1.223c1.476-.322 2.622-1.146 3.421-2.451.799-1.303 1.043-2.73.707-4.272-.334-1.545-1.15-2.763-2.418-3.615-1.267-.853-2.646-1.105-4.121-.784q-2.627.572-3.531 2.963l-.396-1.818-1.835.4 2.293 10.572 1.835-.4zm2.181-8.072q1.582-.344 2.89.498c.879.585 1.43 1.395 1.662 2.473.234 1.079.07 2.045-.492 2.921-.556.896-1.363 1.449-2.418 1.678-1.075.235-2.039.068-2.917-.515-.872-.563-1.423-1.373-1.657-2.451s-.068-2.044.488-2.942c.562-.875 1.369-1.427 2.444-1.662m-16.763 9.766c1.042 1.347 2.454 1.947 4.218 1.801 1.526-.126 2.795-.772 3.758-1.959.965-1.167 1.394-2.526 1.266-4.101-.131-1.573-.776-2.845-1.92-3.857-1.145-1.014-2.5-1.444-4.026-1.318-1.744.144-3.04.967-3.867 2.49l-.126-1.531c-.168-2.048 1.084-3.412 3.321-3.596 1.742-.144 2.973.363 3.653 1.523l1.559-1.063c-1.021-1.632-2.904-2.411-5.314-2.212-1.504.126-2.757.686-3.76 1.659s-1.44 2.247-1.307 3.842l.848 10.331 1.848-.153zm-.286-3.471c-.09-1.101.202-2.036.871-2.831.672-.792 1.545-1.234 2.641-1.324s2.03.2 2.822.874 1.231 1.547 1.321 2.648q.134 1.617-.873 2.808c-.67.794-1.544 1.235-2.641 1.325-1.095.092-2.03-.201-2.82-.874q-1.187-1.009-1.321-2.626m-23.285 4.33c1.499.189 2.686-.272 3.59-1.402.51 1.307 1.484 2.041 2.919 2.222 1.39.175 2.533-.271 3.403-1.317l-.179 1.437 1.863.235 1.342-10.735-1.862-.235-.747 5.97c-.271 2.168-1.585 3.116-3.149 2.918-1.391-.175-2.149-1.251-1.942-2.905l.828-6.612-1.862-.235-.748 5.97c-.277 2.211-1.435 3.133-3.041 2.932-1.435-.18-2.234-1.264-2.027-2.917l.826-6.613-1.862-.234-.836 6.677c-.332 2.663 1.085 4.543 3.484 4.844m-16.19-10.734q-.18.387-.297.793c-.437 1.517-.332 2.946.336 4.287.641 1.359 1.728 2.261 3.243 2.7q2.393.696 4.367-.422c1.316-.743 2.191-1.91 2.642-3.468.456-1.58.315-3.041-.4-4.376-.743-1.318-1.94-2.23-3.577-2.706-2.032-.589-3.773-.238-5.239 1.025l1.281 1.318c.917-.836 2.055-1.047 3.424-.649 1.969.571 3.088 2.068 2.907 4.02zm3.774 6.075c-1.659-.481-2.728-1.918-2.468-3.983l6.924 2.01c-.839 1.739-2.528 2.533-4.456 1.973m-28.427-10.159a37 37 0 0 0-.201-4.127q-.258-2.63-.523-4.064 1.092-.298 3.83-1.401 2.22-.898 3.746-1.749-.041.617.005 1.499.074 1.529.285 3.621.043.458.402 3.063-1.539.484-4.135 1.538a29 29 0 0 0-3.409 1.62m-23.584-13.203 11.093-10.28-3.998-4.339c-1.391-1.51-3.087-2.265-5.071-2.284-2-.001-3.785.71-5.338 2.148s-2.4 3.167-2.539 5.152q-.233 3.001 1.855 5.264zm8.336-10.465-8.304 7.694-2.636-2.86c-1.04-1.128-1.507-2.433-1.374-3.882s.78-2.726 1.968-3.828 2.508-1.647 3.959-1.665 2.712.551 3.751 1.68zm-17.039-6.308 1.118 1.513 8.668-6.442-1.118-1.512-4.594 3.413c-.953.709-1.822.951-2.654.733-.831-.216-1.485-.701-2.002-1.474l-1.578 1.173q1.446 1.955 3.617 1.514zm-6.242-13.075q-1.103 2.299.287 4.596c.78 1.293 1.928 2.109 3.413 2.442s2.904.102 4.248-.714c1.343-.816 2.224-1.983 2.616-3.458.392-1.474.183-2.862-.598-4.153q-1.389-2.298-3.93-2.381l1.583-.961-.97-1.606-9.202 5.593.97 1.605zm8.298-.551q.836 1.384.466 2.895c-.265 1.021-.848 1.803-1.786 2.374-.939.57-1.901.727-2.906.478-1.023-.234-1.805-.819-2.362-1.743-.57-.94-.725-1.907-.46-2.925.246-1.007.83-1.791 1.768-2.361.939-.572 1.901-.728 2.925-.492 1.004.249 1.786.834 2.355 1.774m-14.73-12.73c-.931 1.425-1.037 2.961-.326 4.587.616 1.407 1.639 2.396 3.071 2.925 1.413.536 2.835.5 4.278-.134 1.442-.636 2.43-1.662 3.013-3.077.583-1.413.548-2.84-.068-4.247-.703-1.605-1.901-2.566-3.606-2.855l1.402-.618c1.877-.826 3.57-.081 4.472 1.978.702 1.606.626 2.939-.246 3.961l1.508 1.131c1.206-1.498 1.327-3.537.355-5.757-.607-1.386-1.542-2.393-2.786-3.027-1.243-.633-2.586-.633-4.049.01l-9.463 4.167.745 1.704zm3.18-1.4c1.008-.444 1.985-.473 2.952-.095.967.379 1.667 1.063 2.11 2.073s.47 1.99.093 2.96c-.377.969-1.06 1.671-2.067 2.115q-1.482.655-2.932.085c-.966-.377-1.666-1.061-2.109-2.071-.442-1.012-.47-1.992-.094-2.961q.566-1.455 2.048-2.106m-11.68-20.643c.313 1.483 1.136 2.458 2.495 2.944-1.065.912-1.437 2.074-1.138 3.492.29 1.378 1.083 2.315 2.353 2.798l-1.414.299.388 1.842 10.556-2.236-.388-1.842-5.87 1.243c-2.132.452-3.454-.485-3.78-2.029-.29-1.378.478-2.446 2.103-2.791l6.503-1.378-.388-1.842-5.87 1.244c-2.174.461-3.422-.335-3.757-1.924-.299-1.418.46-2.531 2.085-2.874l6.502-1.378-.388-1.842-6.565 1.391c-2.618.555-3.926 2.512-3.426 4.883m4.646-18.826a5.3 5.3 0 0 0-.846-.012c-1.576.1-2.883.682-3.92 1.771-1.06 1.066-1.54 2.401-1.44 3.981q.159 2.5 1.877 3.989c1.147.993 2.54 1.427 4.158 1.323 1.64-.104 2.967-.732 3.98-1.861.989-1.15 1.44-2.59 1.332-4.301-.134-2.121-1.053-3.65-2.74-4.608l-.805 1.66c1.099.582 1.682 1.589 1.772 3.017.13 2.057-.899 3.622-2.797 4.111zm-4.436 5.628c-.109-1.732.88-3.23 2.911-3.684l.456 7.23c-1.92-.204-3.24-1.532-3.367-3.546m.452-30.339q1.755-.585 3.828-1.545 2.395-1.106 3.661-1.83.641.94 2.578 3.176 1.575 1.811 2.879 2.98-.596.162-1.412.496-1.417.57-3.324 1.458-.418.191-2.757 1.386-.962-1.3-2.806-3.419a29 29 0 0 0-2.647-2.702m5.72-28.637 13.174 7.462 2.902-5.154c1.01-1.793 1.209-3.647.618-5.55-.61-1.914-1.833-3.402-3.677-4.447s-3.747-1.325-5.677-.85q-2.925.696-4.439 3.386zm12.507 4.768-9.863-5.585 1.913-3.398c.755-1.34 1.852-2.187 3.272-2.504 1.42-.316 2.83-.089 4.242.71s2.334 1.894 2.797 3.277c.463 1.382.306 2.762-.449 4.103zm.614-18.209-1.091 1.539 8.818 6.29 1.092-1.538-4.674-3.334c-.97-.692-1.47-1.448-1.522-2.311s.206-1.638.78-2.373l-1.605-1.145q-1.41 1.99-.316 3.929zm10.55-10.016q-2.526-.347-4.285 1.69c-.988 1.146-1.411 2.495-1.271 4.019s.798 2.812 1.99 3.846c1.19 1.033 2.571 1.516 4.095 1.437s2.78-.707 3.768-1.852q1.758-2.037 1.054-4.495l1.403 1.218 1.228-1.423-8.157-7.081-1.229 1.423zm3.082 7.77q-1.06 1.228-2.612 1.339c-1.05.061-1.976-.256-2.808-.978s-1.277-1.595-1.352-2.633c-.09-1.052.225-1.98.931-2.798.72-.835 1.59-1.281 2.642-1.342 1.035-.074 1.96.242 2.792.965.832.722 1.277 1.595 1.368 2.647.075 1.038-.241 1.966-.961 2.8m7.648-17.802c-1.631-.452-3.115-.086-4.435 1.084-1.143 1.013-1.77 2.287-1.832 3.81-.078 1.506.388 2.847 1.426 4.026 1.039 1.179 2.309 1.807 3.824 1.931s2.852-.343 3.995-1.356c1.304-1.156 1.848-2.587 1.604-4.297l1.01 1.147c1.351 1.533 1.162 3.369-.512 4.853-1.304 1.155-2.588 1.488-3.819.969l-.612 1.779c1.784.69 3.748.186 5.551-1.412 1.127-.999 1.794-2.194 2.016-3.57s-.187-2.652-1.24-3.847l-6.815-7.733-1.384 1.227zm2.291 2.599c.726.823 1.049 1.744.986 2.778-.064 1.034-.498 1.908-1.319 2.636-.821.727-1.739 1.052-2.77.988s-1.903-.499-2.628-1.322q-1.067-1.212-.972-2.762c.064-1.035.498-1.908 1.319-2.636s1.739-1.052 2.77-.989q1.547.096 2.614 1.307m15.867-17.752c-1.313.76-1.986 1.853-2.025 3.305-1.199-.735-2.422-.73-3.679-.002-1.219.706-1.865 1.757-1.929 3.124l-.726-1.26-1.632.945 5.416 9.408 1.633-.945-3.012-5.231c-1.094-1.9-.614-3.458.755-4.251 1.22-.706 2.477-.305 3.311 1.144l3.336 5.796 1.632-.946-3.011-5.23c-1.116-1.939-.746-3.382.662-4.197 1.257-.728 2.551-.348 3.385 1.1l3.336 5.796 1.633-.945-3.37-5.852c-1.343-2.334-3.613-2.976-5.715-1.759m19.402-1.109a5.5 5.5 0 0 0-.246-.81c-.575-1.47-1.525-2.538-2.87-3.195-1.333-.685-2.744-.736-4.209-.16q-2.321.912-3.209 3.002c-.59 1.394-.578 2.853.012 4.364.599 1.532 1.596 2.604 2.975 3.225 1.389.593 2.891.584 4.479-.04 1.969-.772 3.137-2.114 3.532-4.012l-1.818-.262c-.217 1.224-.992 2.086-2.318 2.607-1.91.75-3.704.246-4.747-1.414zm-6.681-2.513c1.608-.63 3.328-.144 4.376 1.652l-6.711 2.635c-.392-1.892.467-3.553 2.335-4.287m28.731-8.944a37 37 0 0 0 2.654 3.146q1.791 1.926 2.87 2.901-.685.9-2.188 3.438-1.215 2.06-1.909 3.661a13 13 0 0 0-.909-1.183 72 72 0 0 0-2.415-2.696q-.31-.337-2.17-2.182.927-1.32 2.348-3.73a29 29 0 0 0 1.719-3.355"/></g><path d="M175 247c39.212 0 71-31.788 71-71s-31.788-71-71-71-71 31.788-71 71 31.788 71 71 71" fill="#fff"/><path d="M174.865 217.672c23.095 0 41.816-18.722 41.816-41.816s-18.721-41.816-41.816-41.816c-23.094 0-41.816 18.721-41.816 41.816 0 23.094 18.722 41.816 41.816 41.816Z" fill="#fff" stroke="#202020" stroke-width=".586" stroke-miterlimit="10"/><path fill-rule="evenodd" clip-rule="evenodd" d="M166.618 157.258c-.814.412-1.374.831-1.636 1.253a1 1 0 0 0-.138.797 8 8 0 0 1 1.713-.509c.967-.186 2.055-.267 3.14-.272 2.161-.01 4.419.279 5.862.701h.001c.814.239 1.583.654 2.303 1.157q.091-.46-.129-.949c-.241-.537-.771-1.116-1.603-1.615-.401-.24-1.053-.478-1.893-.675a18 18 0 0 0-2.756-.405c-.975-.07-1.95-.066-2.813.022-.874.09-1.579.262-2.051.495m-3.418 1.885q.02.535.246 1.068c-3.454 2.733-5.233 6.206-6.052 10.373-.302 1.522-.537 3.366-.291 4.896.499 3.118 1.698 4.827 3.095 5.746 1.066.701 2.188.886 2.905.974 1.056 2.531 3.922 4.204 7.525 3.835a73 73 0 0 1-.334 7.097l-.001.006c-.132 1.502.436 2.675 1.508 3.301 1.019.594 2.331.597 3.543.171 2.471-.868 4.808-3.572 4.712-7.91-.023-1.05-.154-2.266-.295-3.544l-.014-.129c-.137-1.253-.283-2.578-.359-3.938-.137-2.452-.042-4.941.699-7.183 2.072 1.607 4.215 2.8 6.279 2.981 1.21.107 2.387-.135 3.473-.825 1.073-.682 2.007-1.771 2.804-3.278.267-.502.39-1.016.349-1.527a2.6 2.6 0 0 0-.521-1.342c-.546-.739-1.437-1.278-2.327-1.676-1.802-.804-4.037-1.214-5.03-1.338-.126-.016-.316-.082-.583-.249a6.5 6.5 0 0 1-.892-.705c-.554-.507-1.147-1.142-1.804-1.846l-.002-.002-.003-.004-.002-.001-.432-.463c-.683-.727-1.422-1.495-2.204-2.188.43-.872.401-1.805.018-2.659-.413-.919-1.22-1.721-2.243-2.334l-.001-.001c-.609-.364-1.449-.65-2.356-.862a19.5 19.5 0 0 0-3.012-.444 18 18 0 0 0-3.095.026c-.964.099-1.889.3-2.611.658l-.006.003c-.869.439-1.774 1.025-2.281 1.843-.265.427-.423.92-.405 1.47m7.428 26.892q0-.459-.007-.918l.218-.003q.002.386-.007.738l.685-.307.069.347a10 10 0 0 1-.958.143m-7.525-3.835a6 6 0 0 1-.182-.501l.224-.068q.047.209.095.389l.396-.152-.056.389-.259-.032h-.001zm-6-6.72.798-.125-.798.126zm.291-4.896.001-.001.792.155zm4.862 6.535c.768.82 1.328 2.24 1.825 3.642a.8.8 0 0 1 .385.467c.623 2.008 2.953 3.67 6.364 3.168-.052-2.319-.333-5.18-.941-6.76 1.632 2.12 2.071 4.263 2.133 6.926a.8.8 0 0 1 .215.533 75 75 0 0 1-.334 8.186c-.087.997.275 1.519.717 1.777.495.289 1.282.359 2.185.042 1.759-.618 3.717-2.661 3.635-6.365-.021-.967-.143-2.111-.285-3.405l-.016-.142c-.137-1.244-.287-2.607-.365-4.01-.163-2.905-.028-6.08 1.214-8.913a.815.815 0 0 1 1.263-.293c2.298 1.923 4.43 3.159 6.258 3.32.884.077 1.698-.096 2.457-.579.771-.49 1.536-1.333 2.246-2.674l.716.372-.715-.373c.149-.281.181-.494.168-.655a1 1 0 0 0-.215-.522c-.296-.401-.878-.8-1.686-1.161-1.592-.71-3.647-1.094-4.569-1.21-.449-.056-.867-.249-1.242-.483a8 8 0 0 1-1.126-.883c-.606-.553-1.254-1.248-1.912-1.953v-.001l-.418-.447c-.816-.87-1.657-1.735-2.528-2.454-.875-.721-1.737-1.255-2.584-1.505-1.256-.367-3.349-.644-5.396-.635-1.019.005-2 .081-2.84.243-.855.165-1.493.405-1.884.691l-.001.001c-3.449 2.515-5.198 5.751-5.999 9.827v.002c-.295 1.484-.481 3.097-.282 4.336.449 2.802 1.469 4.053 2.393 4.662.631.415 1.268.575 1.845.665-.056-.314-.11-.64-.163-.962-.175-1.053-.342-2.059-.518-2.475m4.687-14.358a.8.8 0 0 0-.332-1.084.81.81 0 0 0-1.094.329c-1.149 2.132-1.475 3.184-1.776 4.154-.093.3-.184.592-.296.905a.8.8 0 0 0 .493 1.023.81.81 0 0 0 1.031-.489c.131-.366.23-.685.328-1 .294-.947.575-1.851 1.646-3.838m2.27-1.096a.8.8 0 0 1 .592.969c-.593 2.395-.79 3.889-.993 5.428-.074.558-.148 1.123-.243 1.739a.806.806 0 0 1-.92.671.8.8 0 0 1-.678-.912c.088-.57.159-1.11.231-1.656.206-1.56.417-3.164 1.034-5.652a.807.807 0 0 1 .977-.587m3.944 1.003a.8.8 0 0 0-.724-.876.806.806 0 0 0-.884.718 38 38 0 0 0-.171 5.061.805.805 0 0 0 .833.775.803.803 0 0 0 .782-.826c-.052-1.619.003-3.24.164-4.852" fill="#00F"/><path d="m176.674 118.02.669-9.358 4.038.308q1.042.079 1.796.518.753.438 1.137 1.184.383.746.311 1.742-.072 1.005-.569 1.661a2.73 2.73 0 0 1-1.321.947q-.825.291-1.894.21l-2.411-.184.141-1.974 1.9.145q.447.035.771-.052a.95.95 0 0 0 .514-.323q.192-.234.22-.631.029-.403-.127-.667a.98.98 0 0 0-.462-.412 2.1 2.1 0 0 0-.754-.181l-.895-.068-.525 7.329zm5.788-3.878 2.032 4.474-2.759-.21-1.977-4.469zm5.439 5.477q-1.1-.249-1.805-.85a3.07 3.07 0 0 1-.96-1.495q-.255-.894-.018-2.005.227-1.066.826-1.766a3.1 3.1 0 0 1 1.475-.967q.876-.267 1.94-.026.777.177 1.355.561.579.384.927.947.35.56.452 1.267.102.71-.073 1.529l-.122.574-6.13-1.389.29-1.362 3.86.874a1 1 0 0 0-.041-.554 1 1 0 0 0-.313-.442 1.2 1.2 0 0 0-.522-.254 1.2 1.2 0 0 0-.577.005 1.04 1.04 0 0 0-.477.259q-.195.19-.268.488l-.313 1.47q-.07.332.013.623t.31.498q.228.206.594.289.255.058.48.034a1.1 1.1 0 0 0 .411-.123.85.85 0 0 0 .294-.281l2.251.51q-.268.69-.814 1.121-.546.426-1.322.555-.772.126-1.723-.09m5.866 1.72a3.1 3.1 0 0 1-1.038-.632 1.84 1.84 0 0 1-.524-.926q-.12-.531.116-1.191.196-.543.518-.856.322-.318.741-.438.418-.12.9-.082.487.039 1.011.195.567.168.923.235.361.065.551.009a.38.38 0 0 0 .26-.248l.006-.018a.5.5 0 0 0-.054-.472.94.94 0 0 0-.456-.33q-.337-.13-.606-.06-.262.066-.415.356l-2.174-.831a2.36 2.36 0 0 1 .781-.967q.526-.382 1.291-.438.766-.06 1.746.314a4.8 4.8 0 0 1 1.207.653q.501.378.788.825.288.444.351.919.07.472-.097.934l-1.629 4.535-2.208-.844.334-.931-.051-.019q-.33.295-.695.416-.36.122-.757.088a3 3 0 0 1-.82-.196m1.309-1.206q.27.104.546.081a1 1 0 0 0 .505-.174.9.9 0 0 0 .334-.456l.199-.552a3 3 0 0 1-.228-.004 4 4 0 0 1-.514-.059 7 7 0 0 1-.287-.055 1.4 1.4 0 0 0-.5-.03.7.7 0 0 0-.342.139.64.64 0 0 0-.193.28.54.54 0 0 0 .041.496.86.86 0 0 0 .439.334m6.655 4.903q-1.002-.554-1.506-1.352a3.23 3.23 0 0 1-.506-1.735q-.002-.939.497-1.897.5-.96 1.257-1.472a2.97 2.97 0 0 1 1.682-.524q.925-.01 1.927.544.905.5 1.393 1.201.494.697.544 1.504.051.804-.368 1.618l-2.052-1.136q.212-.516.109-.903a.9.9 0 0 0-.466-.592.9.9 0 0 0-.594-.109q-.303.047-.601.321-.295.271-.562.783t-.324.92q-.056.403.072.694a.95.95 0 0 0 .418.446q.244.135.492.126a.93.93 0 0 0 .483-.173q.239-.16.432-.472l2.052 1.136q-.442.818-1.122 1.232a2.66 2.66 0 0 1-1.513.377q-.83-.032-1.744-.537m7.951.31-2.3 3.221-2.014-1.529 5.451-7.635 1.941 1.473-2.14 2.998.059.044a1.97 1.97 0 0 1 1.241-.374q.662.025 1.282.496.595.452.836 1.06.244.612.139 1.279a2.96 2.96 0 0 1-.552 1.294l-2.609 3.653-2.014-1.529 2.3-3.221q.307-.422.268-.825-.035-.4-.421-.694a1 1 0 0 0-.511-.215.87.87 0 0 0-.508.097q-.242.126-.448.407m12.333 7.368-1.322 1.269-3.106-3.442 1.322-1.269zm-1.288-3.943 1.694 1.878-4.66 4.472a.6.6 0 0 0-.145.209.35.35 0 0 0-.001.217.7.7 0 0 0 .148.232q.076.086.198.179.125.096.186.138l-1.037 1.503a9 9 0 0 1-.414-.275 4 4 0 0 1-.567-.484q-.616-.615-.85-1.209a1.8 1.8 0 0 1-.076-1.158q.153-.56.692-1.064zm-1.068 12.695q-.66-.936-.767-1.874a3.26 3.26 0 0 1 .298-1.787q.405-.847 1.27-1.496.865-.648 1.768-.782a2.95 2.95 0 0 1 1.74.258q.837.392 1.496 1.327.66.936.764 1.878a3.2 3.2 0 0 1-.298 1.786q-.402.845-1.267 1.493t-1.771.785a3 3 0 0 1-1.74-.258q-.833-.394-1.493-1.33m1.506-1.106a.77.77 0 0 0 .492.323q.307.062.699-.072.393-.135.833-.464.444-.333.685-.674.244-.344.282-.664a.82.82 0 0 0-.147-.582.82.82 0 0 0-.507-.346q-.313-.07-.705.065a3 3 0 0 0-.833.464q-.44.33-.685.673-.244.345-.277.672a.87.87 0 0 0 .163.605m7.355 10.749 3.595-1.656 1.005 2.321-6.391 2.943-.954-2.203 1.215-.559-.029-.068a1.93 1.93 0 0 1-1.275-.294q-.57-.369-.882-1.092a2.46 2.46 0 0 1-.206-1.327q.09-.646.509-1.177.42-.526 1.118-.853l4.077-1.878 1.005 2.321-3.595 1.655q-.472.223-.639.587-.165.368.024.806.126.29.338.444a.87.87 0 0 0 .491.167q.28.013.594-.137m4.748 9.426-.622-2.242a.65.65 0 0 0 .316-.251.9.9 0 0 0 .136-.399 1.2 1.2 0 0 0-.038-.466 1.2 1.2 0 0 0-.264-.504q-.177-.192-.386-.125-.151.04-.242.209-.089.175-.052.584l.136 1.45q.1 1.098-.207 1.737-.302.643-1.048.868a2 2 0 0 1-1.372-.063q-.645-.269-1.139-.92-.489-.649-.75-1.589-.43-1.554-.042-2.619.391-1.061 1.399-1.468l.671 2.419a.74.74 0 0 0-.408.464q-.096.325.02.739.093.336.267.519.175.186.387.129.193-.061.254-.285.063-.22.023-.637l-.122-1.263q-.108-1.091.255-1.756.362-.665 1.158-.896.702-.212 1.294.02.597.234 1.047.861.455.63.723 1.596.408 1.47.036 2.497-.37 1.03-1.43 1.391m.492 8.135 1.618.019-1.031-1.26 1.224-.833.785 1.408.567-1.515 1.333.629-.832 1.408 1.597-.274.109 1.462-1.618-.018 1.031 1.26-1.224.832-.785-1.408-.567 1.515-1.333-.629.832-1.408-1.597.274zm-3.776 5.557 9.361.639-.26 4.041q-.066 1.043-.496 1.798a2.84 2.84 0 0 1-1.171 1.142q-.74.386-1.737.318-1.005-.069-1.667-.564a2.8 2.8 0 0 1-.962-1.319q-.3-.825-.231-1.894l.154-2.414 1.975.135-.122 1.902q-.028.447.06.771a.98.98 0 0 0 .33.513q.236.19.633.218.403.027.665-.129a.97.97 0 0 0 .406-.464q.144-.306.173-.755l.057-.896-7.331-.5zm3.945 5.779-4.447 2.048.177-2.761 4.443-1.993zm-5.361 5.676q.226-1.104.811-1.811a2.96 2.96 0 0 1 1.469-.959q.884-.253 1.994-.011 1.065.232 1.773.837.708.606.99 1.487t.063 1.95a4 4 0 0 1-.531 1.361 3 3 0 0 1-.925.928 3.1 3.1 0 0 1-1.252.449 4.3 4.3 0 0 1-1.522-.079l-.573-.125 1.263-6.157 1.361.297-.796 3.877q.297.06.551-.039a1 1 0 0 0 .434-.313q.178-.215.243-.524a1.2 1.2 0 0 0-.017-.58 1.1 1.1 0 0 0-.266-.48 1 1 0 0 0-.492-.272l-1.468-.32a1.25 1.25 0 0 0-.619.01 1 1 0 0 0-.489.311 1.27 1.27 0 0 0-.277.596q-.053.255-.024.482.027.231.131.413a.86.86 0 0 0 .285.297l-.464 2.261a2.66 2.66 0 0 1-1.131-.823 2.96 2.96 0 0 1-.578-1.331q-.14-.776.056-1.732m-1.574 6.101q.223-.636.601-1.047.38-.406.902-.524t1.179.127q.54.202.857.53.321.33.449.755.128.423.102.913a5 5 0 0 1-.169 1.022 10 10 0 0 0-.211.933q-.055.366.003.558.062.195.251.265l.017.007a.47.47 0 0 0 .465-.052.9.9 0 0 0 .316-.459q.12-.341.046-.613-.072-.267-.361-.423l.77-2.196q.586.267.973.798.389.536.462 1.311.077.777-.271 1.767a4.7 4.7 0 0 1-.616 1.217 3 3 0 0 1-.798.792 2.1 2.1 0 0 1-.899.349 1.86 1.86 0 0 1-.924-.105l-4.515-1.685.783-2.231.927.346.018-.052q-.3-.337-.427-.706-.129-.366-.104-.768.022-.397.174-.829m1.221 1.335a1.3 1.3 0 0 0-.067.552q.026.284.183.513a.92.92 0 0 0 .458.342l.549.205a3 3 0 0 1-.001-.23q.002-.117.014-.249a5 5 0 0 1 .081-.561 1.5 1.5 0 0 0 .017-.507.7.7 0 0 0-.145-.347.64.64 0 0 0-.28-.198q-.274-.103-.489.038a.84.84 0 0 0-.32.442m-4.664 6.899q.521-1.02 1.291-1.529a3 3 0 0 1 1.688-.506q.918.004 1.868.521.95.516 1.468 1.293.523.778.55 1.722.032.944-.49 1.964-.471.923-1.145 1.416a2.66 2.66 0 0 1-1.461.545q-.786.048-1.593-.386l1.067-2.089q.51.22.887.117a.86.86 0 0 0 .57-.471.93.93 0 0 0 .094-.606q-.052-.31-.328-.616-.272-.304-.779-.58t-.907-.337q-.397-.059-.679.069a.9.9 0 0 0-.427.424.97.97 0 0 0-.113.502q.02.255.18.494.162.245.472.444l-1.067 2.089q-.811-.456-1.231-1.154a2.85 2.85 0 0 1-.402-1.548q.012-.848.487-1.778m-.148 8.288-3.171-2.369 1.454-2.069 7.516 5.615-1.402 1.994-2.95-2.204-.042.06q.402.598.385 1.276-.015.682-.462 1.318-.429.612-1.017.858a2.2 2.2 0 0 1-1.241.142q-.654-.105-1.267-.57l-3.597-2.687 1.454-2.069 3.171 2.369q.415.316.807.277.388-.036.667-.433.177-.25.201-.524a.94.94 0 0 0-.103-.523 1.4 1.4 0 0 0-.403-.461m-7.027 12.844-1.238-1.351 3.321-3.236 1.238 1.351zm3.816-1.366-1.811 1.765-4.363-4.763a.54.54 0 0 0-.203-.147.3.3 0 0 0-.211.001.7.7 0 0 0-.225.155 1.5 1.5 0 0 0-.171.205 3 3 0 0 0-.133.194l-1.464-1.055q.088-.156.265-.43.173-.271.466-.589.593-.64 1.167-.888.579-.243 1.123-.09.544.154 1.036.704zm-12.291-.91q.91-.694 1.823-.82a3 3 0 0 1 1.737.278q.823.402 1.453 1.281t.759 1.806q.13.93-.253 1.793-.382.867-1.293 1.561-.91.693-1.826.815a2.95 2.95 0 0 1-1.737-.277q-.82-.399-1.451-1.278-.629-.879-.761-1.809a3.26 3.26 0 0 1 .253-1.793q.385-.863 1.296-1.557m1.074 1.53q-.255.195-.316.511-.06.317.07.719t.45.848q.323.452.654.693.334.247.646.28a.77.77 0 0 0 .566-.161.87.87 0 0 0 .337-.528q.069-.322-.062-.723a3.1 3.1 0 0 0-.45-.849 3.1 3.1 0 0 0-.654-.693q-.335-.246-.653-.274a.82.82 0 0 0-.588.177m-10.418 7.756 1.6 3.621-2.288 1.075-2.845-6.435 2.172-1.022.541 1.224.066-.031a2.07 2.07 0 0 1 .3-1.305q.366-.588 1.079-.922.668-.314 1.306-.24.635.076 1.153.49.515.416.83 1.118l1.815 4.106-2.288 1.076-1.6-3.62q-.216-.475-.572-.637-.362-.16-.792.044a1.1 1.1 0 0 0-.44.353.94.94 0 0 0-.168.504q-.014.285.131.601m-9.203 4.98 2.227-.675a.63.63 0 0 0 .246.312.8.8 0 0 0 .394.13q.222.024.463-.05.31-.094.502-.277.19-.182.126-.392a.38.38 0 0 0-.207-.239q-.171-.087-.578-.04l-1.438.169q-1.089.124-1.721-.172-.635-.291-.853-1.038a2.07 2.07 0 0 1 .071-1.386q.27-.656.919-1.169.646-.507 1.58-.791 1.542-.468 2.596-.099 1.049.371 1.446 1.38l-2.402.729a.7.7 0 0 0-.457-.402q-.321-.088-.733.036a1.2 1.2 0 0 0-.516.281q-.186.181-.13.394.06.192.281.25.217.058.631.009l1.253-.151q1.082-.132 1.739.219.657.35.881 1.15.206.703-.028 1.305-.236.609-.86 1.075-.627.473-1.587.764-1.46.444-2.475.091-1.02-.351-1.37-1.413m-7.829.573-.014 1.62 1.256-1.048.835 1.215-1.405.803 1.516.548-.625 1.343-1.41-.815.278 1.594-1.46.127.014-1.619-1.256 1.047-.835-1.214 1.405-.803-1.516-.549.625-1.342 1.409.815-.278-1.594zm-5.371-3.732-.532 9.366-4.043-.244q-1.043-.063-1.802-.49a2.86 2.86 0 0 1-1.155-1.166q-.394-.74-.337-1.737.058-1.006.544-1.67a2.75 2.75 0 0 1 1.308-.967q.82-.304 1.89-.239l2.415.146-.113 1.975-1.902-.114a2.3 2.3 0 0 0-.77.063.96.96 0 0 0-.509.332q-.189.237-.211.634-.023.403.137.665a.98.98 0 0 0 .468.404q.308.143.756.17l.897.054.416-7.336zm-5.732 3.967-2.097-4.44 2.762.167 2.042 4.437zm-5.516-5.388q1.103.232 1.818.822.71.593.982 1.479.268.89.048 2.004-.21 1.07-.799 1.779a3.1 3.1 0 0 1-1.461.99q-.872.28-1.939.056a4 4 0 0 1-1.364-.539 3.1 3.1 0 0 1-.942-.932 3.2 3.2 0 0 1-.47-1.26 4.3 4.3 0 0 1 .05-1.529l.113-.575 6.151 1.291-.269 1.366-3.874-.813a1 1 0 0 0 .05.553q.098.26.32.437.216.182.525.246.301.064.577-.014.276-.074.473-.266a1 1 0 0 0 .261-.493l.291-1.474a1.3 1.3 0 0 0-.022-.622 1.05 1.05 0 0 0-.318-.493 1.3 1.3 0 0 0-.599-.28 1.4 1.4 0 0 0-.48-.026 1.1 1.1 0 0 0-.409.129.84.84 0 0 0-.289.286l-2.26-.474q.258-.695.798-1.134.538-.435 1.314-.576.77-.138 1.724.062m-5.904-1.629a3.1 3.1 0 0 1 1.048.616q.41.387.538.917t-.099 1.192q-.188.547-.504.865a1.7 1.7 0 0 1-.735.449 2.5 2.5 0 0 1-.899.096 5 5 0 0 1-1.014-.179 10 10 0 0 0-.927-.221q-.362-.058-.551-.001a.38.38 0 0 0-.256.253l-.006.017a.5.5 0 0 0 .061.471.94.94 0 0 0 .461.324q.34.124.607.051.261-.07.41-.363l2.186.797q-.25.591-.766.978-.52.39-1.285.458-.765.073-1.751-.287a4.8 4.8 0 0 1-1.216-.633 3.2 3.2 0 0 1-.801-.813 2.2 2.2 0 0 1-.365-.913 1.9 1.9 0 0 1 .083-.935l1.562-4.559 2.221.809-.321.936.052.019a2 2 0 0 1 .688-.427 1.8 1.8 0 0 1 .756-.1q.393.025.823.183m-1.291 1.226a1.24 1.24 0 0 0-.547-.073 1 1 0 0 0-.503.183.9.9 0 0 0-.327.461l-.19.554q.108-.004.227 0 .115.003.247.017.127.012.268.034.138.022.288.052.29.057.501.021a.7.7 0 0 0 .34-.144.63.63 0 0 0 .188-.282.54.54 0 0 0-.048-.496.86.86 0 0 0-.444-.327m-6.723-4.795q1.01.539 1.526 1.328.514.794.532 1.727.017.938-.468 1.904t-1.235 1.491a2.97 2.97 0 0 1-1.674.549q-.925.026-1.935-.513-.914-.487-1.412-1.179a2.87 2.87 0 0 1-.566-1.496q-.065-.802.343-1.623l2.069 1.104q-.204.519-.095.904a.91.91 0 0 0 .475.586.9.9 0 0 0 .595.099q.303-.051.597-.33.291-.276.55-.792.26-.515.31-.924.05-.405-.083-.693a.95.95 0 0 0-.425-.44.94.94 0 0 0-.494-.118.94.94 0 0 0-.479.18q-.237.165-.425.479l-2.07-1.104q.43-.824 1.104-1.249a2.66 2.66 0 0 1 1.507-.4q.83.018 1.753.51m-7.954-.186 2.251-3.256 2.037 1.498-5.336 7.717-1.963-1.444 2.095-3.029-.059-.044a1.97 1.97 0 0 1-1.236.394q-.662-.016-1.29-.477-.602-.442-.851-1.047a2.4 2.4 0 0 1-.159-1.276q.092-.672.533-1.302l2.553-3.693 2.037 1.498-2.251 3.256q-.3.427-.256.829.042.399.432.687.247.182.514.207a.87.87 0 0 0 .507-.104q.24-.13.442-.414m-12.441-7.178 1.302-1.289 3.158 3.394-1.303 1.289zm1.347 3.922-1.722-1.851 4.592-4.543a.6.6 0 0 0 .141-.211.34.34 0 0 0-.002-.217.7.7 0 0 0-.151-.23 1.5 1.5 0 0 0-.201-.175 3 3 0 0 0-.188-.136l1.014-1.518q.151.088.418.268.265.177.574.476.626.605.869 1.196.239.594.094 1.156-.147.563-.677 1.075zm.879-12.707q.674.925.795 1.863a3.25 3.25 0 0 1-.271 1.791q-.392.854-1.247 1.515-.855.662-1.756.809-.905.15-1.743-.231-.842-.38-1.516-1.305-.673-.925-.792-1.866-.12-.936.271-1.79.39-.852 1.244-1.513.855-.662 1.759-.812a3 3 0 0 1 1.743.232q.839.381 1.513 1.307m-1.489 1.129a.77.77 0 0 0-.496-.316q-.308-.057-.699.083t-.825.477a3.1 3.1 0 0 0-.674.684q-.24.348-.273.669a.8.8 0 0 0 .156.579.82.82 0 0 0 .513.339q.313.065.704-.076.387-.137.825-.476.435-.337.674-.685.24-.347.267-.675a.87.87 0 0 0-.172-.603m-7.511-10.63-3.569 1.711-1.039-2.305 6.344-3.043.987 2.188-1.206.579.03.067a1.93 1.93 0 0 1 1.279.275q.575.359.899 1.078.303.672.225 1.324a2.4 2.4 0 0 1-.49 1.185 3.1 3.1 0 0 1-1.105.87l-4.048 1.942-1.039-2.305 3.568-1.712q.47-.231.63-.597.159-.371-.036-.805a1.06 1.06 0 0 0-.344-.44.9.9 0 0 0-.494-.159 1.26 1.26 0 0 0-.592.147m-4.887-9.353.655 2.233a.65.65 0 0 0-.312.255.9.9 0 0 0-.13.401q-.026.224.046.465.091.313.271.501.179.19.388.119a.4.4 0 0 0 .238-.213q.087-.177.043-.585l-.157-1.448q-.117-1.095.181-1.741.291-.647 1.034-.884a2.02 2.02 0 0 1 1.373.042q.648.258 1.152.902.499.64.774 1.577.453 1.548.081 2.619-.375 1.067-1.377 1.49l-.707-2.409a.73.73 0 0 0 .401-.471q.09-.326-.03-.738a1.2 1.2 0 0 0-.275-.514q-.178-.184-.39-.124-.19.065-.249.289-.06.22-.013.638l.141 1.261q.123 1.09-.228 1.76-.353.672-1.145.914-.699.223-1.294.001-.6-.225-1.059-.845-.465-.623-.747-1.585-.43-1.464-.074-2.496.354-1.038 1.409-1.414m-.611-8.125-1.619.006 1.05 1.244-1.212.852-.805-1.396-.544 1.524-1.343-.608.811-1.421-1.592.299-.131-1.46 1.619-.007-1.05-1.244 1.212-.851.805 1.395.545-1.524 1.342.609-.811 1.42 1.592-.298zm3.695-5.611-9.369-.492.2-4.045q.051-1.043.47-1.806a2.83 2.83 0 0 1 1.153-1.159q.735-.397 1.733-.345 1.006.052 1.675.537.669.481.981 1.304.313.82.26 1.89l-.119 2.416-1.977-.104.094-1.903a2.3 2.3 0 0 0-.072-.77.97.97 0 0 0-.337-.509q-.238-.186-.636-.207-.403-.021-.663.139a.97.97 0 0 0-.399.47 2.1 2.1 0 0 0-.162.758l-.044.896 7.338.386zm-4.029-5.717 4.416-2.116-.136 2.763-4.414 2.062zm5.279-5.768q-.21 1.107-.784 1.823-.577.71-1.455.982-.88.266-1.994.042-1.069-.216-1.786-.81a3.2 3.2 0 0 1-1.012-1.47q-.295-.878-.092-1.949.149-.783.512-1.368t.911-.943a3.1 3.1 0 0 1 1.245-.468 4.3 4.3 0 0 1 1.523.055l.575.116-1.172 6.175-1.365-.276.738-3.888a.96.96 0 0 0-.55.048.97.97 0 0 0-.429.32q-.177.216-.235.527-.058.301.025.58.078.277.273.476.196.194.496.263l1.473.297q.331.067.619-.02a1 1 0 0 0 .484-.318q.198-.231.268-.6.049-.257.017-.482a1.1 1.1 0 0 0-.136-.411.9.9 0 0 0-.29-.292l.431-2.268a2.66 2.66 0 0 1 1.143.805q.442.542.598 1.322.151.773-.031 1.732m1.484-6.124a3 3 0 0 1-.585 1.056 1.74 1.74 0 0 1-.894.537q-.52.126-1.181-.109-.543-.193-.865-.516a1.8 1.8 0 0 1-.461-.747 2.7 2.7 0 0 1-.115-.911q.02-.494.154-1.025.144-.576.197-.936.05-.366-.011-.558a.4.4 0 0 0-.256-.261l-.017-.006a.47.47 0 0 0-.464.058.9.9 0 0 0-.31.464q-.114.344-.036.614.075.265.367.418l-.737 2.207a2.43 2.43 0 0 1-.985-.783q-.397-.53-.481-1.304-.089-.776.244-1.77.239-.716.598-1.226.354-.511.786-.805.426-.296.894-.362.463-.074.925.091l4.541 1.614-.749 2.242-.933-.332-.017.052q.305.333.437.7.135.364.116.766a3 3 0 0 1-.162.832m-1.241-1.316a1.3 1.3 0 0 0 .059-.553 1.06 1.06 0 0 0-.191-.51.93.93 0 0 0-.463-.335l-.552-.197a3.4 3.4 0 0 1-.006.48 4 4 0 0 1-.028.272q-.018.14-.044.29a1.5 1.5 0 0 0-.01.507.7.7 0 0 0 .15.345.64.64 0 0 0 .283.193q.276.099.489-.045a.84.84 0 0 0 .313-.447m4.561-6.966q-.506 1.027-1.268 1.549a3 3 0 0 1-1.681.531q-.918.01-1.876-.492-.959-.5-1.488-1.27a3.2 3.2 0 0 1-.576-1.712q-.046-.945.46-1.972.458-.929 1.124-1.433.665-.51 1.453-.567.785-.06 1.599.361l-1.036 2.104q-.513-.211-.888-.103a.86.86 0 0 0-.564.481.93.93 0 0 0-.084.607q.057.308.337.611.276.299.788.567.511.267.913.323.397.053.677-.08a.9.9 0 0 0 .421-.43.97.97 0 0 0 .105-.504 1 1 0 0 0-.187-.491 1.6 1.6 0 0 0-.479-.437l1.036-2.104q.817.444 1.248 1.135.427.688.426 1.541.001.847-.46 1.785m.024-8.29 3.206 2.321-1.422 2.09-7.601-5.499 1.371-2.015 2.984 2.159.041-.061a2.14 2.14 0 0 1-.404-1.27q.004-.681.442-1.325.42-.618 1.004-.873a2.2 2.2 0 0 1 1.239-.161q.655.096 1.276.551l3.637 2.631-1.423 2.091-3.206-2.32q-.42-.31-.811-.265-.388.041-.662.443a1.06 1.06 0 0 0-.192.527.95.95 0 0 0 .11.521q.131.248.411.455m6.836-12.954 1.259 1.333-3.271 3.285-1.259-1.332zm-3.794 1.424 1.784-1.792 4.435 4.696a.54.54 0 0 0 .205.144.3.3 0 0 0 .211-.004.7.7 0 0 0 .222-.158 1.5 1.5 0 0 0 .168-.208 3 3 0 0 0 .13-.196l1.479 1.033a9 9 0 0 1-.257.434 4.4 4.4 0 0 1-.458.595q-.582.651-1.154.906-.573.252-1.121.107-.546-.145-1.046-.688zm12.303.723q-.9.708-1.811.847a3 3 0 0 1-1.74-.251q-.83-.39-1.473-1.259-.642-.87-.785-1.794a3.2 3.2 0 0 1 .226-1.797q.369-.873 1.269-1.581t1.813-.843a2.94 2.94 0 0 1 1.74.251q.828.386 1.47 1.256.643.869.788 1.797.143.925-.226 1.797-.37.869-1.271 1.577m-1.097-1.514a.8.8 0 0 0 .308-.516q.056-.318-.081-.717a3.1 3.1 0 0 0-.463-.842 3 3 0 0 0-.664-.683q-.338-.242-.65-.27a.77.77 0 0 0-.563.169.87.87 0 0 0-.33.533q-.063.324.074.723.132.396.463.842.326.441.664.683t.657.264a.82.82 0 0 0 .585-.186m10.298-7.919-1.654-3.595 2.271-1.112 2.941 6.392-2.156 1.055-.559-1.215-.066.032q.076.713-.28 1.31-.357.593-1.065.939-.661.324-1.302.26a2.25 2.25 0 0 1-1.16-.472q-.52-.409-.846-1.106l-1.877-4.078 2.272-1.111 1.654 3.595q.222.472.582.628.362.154.791-.055.284-.14.434-.361a.94.94 0 0 0 .16-.506q.01-.285-.14-.6m9.13-5.127-2.216.711a.63.63 0 0 0-.251-.309.8.8 0 0 0-.396-.123 1.15 1.15 0 0 0-.461.056 1.2 1.2 0 0 0-.498.285q-.189.186-.12.394a.37.37 0 0 0 .209.236q.174.084.579.031l1.435-.191q1.087-.141 1.723.145.64.28.869 1.025.213.72-.051 1.387-.26.66-.901 1.184-.637.516-1.567.815-1.536.493-2.594.139-1.054-.354-1.467-1.357l2.391-.767a.7.7 0 0 0 .463.395q.323.084.732-.047.332-.106.511-.289.184-.184.125-.396-.063-.192-.285-.245-.217-.056-.631 0l-1.25.17q-1.08.149-1.742-.191-.663-.341-.897-1.136-.216-.701.007-1.306.228-.612.844-1.089.62-.483 1.575-.789 1.453-.466 2.473-.129 1.025.335 1.391 1.391m7.821-.698-.01-1.62-1.24 1.068-.853-1.202 1.393-.825-1.524-.524.605-1.352 1.421.793-.301-1.59 1.458-.151.01 1.62 1.24-1.067.853 1.202-1.393.825 1.524.524-.606 1.352-1.42-.793.301 1.59z" fill="#5D5D5D"/></svg>