<svg width="386" height="313" viewBox="0 0 386 313" fill="none" xmlns="http://www.w3.org/2000/svg">
<g clip-path="url(#clip0_0_1)">
<mask id="path-1-inside-1_0_1" fill="white">
<path d="M39.3241 32.9755C51.8284 14.7636 76.7287 10.1367 94.9406 22.641L352.381 199.4C370.593 211.905 375.22 236.805 362.716 255.017L346.033 279.315C333.528 297.527 308.628 302.153 290.416 289.649L32.9755 112.89C14.7637 100.386 10.1368 75.4852 22.6411 57.2733L39.3241 32.9755Z"/>
</mask>
<path d="M39.3241 32.9755C51.8284 14.7636 76.7287 10.1367 94.9406 22.641L352.381 199.4C370.593 211.905 375.22 236.805 362.716 255.017L346.033 279.315C333.528 297.527 308.628 302.153 290.416 289.649L32.9755 112.89C14.7637 100.386 10.1368 75.4852 22.6411 57.2733L39.3241 32.9755Z" fill="#0000FF"/>
</g>
<path d="M94.3746 23.4654L351.815 200.225L352.947 198.576L95.5066 21.8167L94.3746 23.4654ZM361.891 254.451L345.208 278.749L346.857 279.881L363.54 255.583L361.891 254.451ZM290.982 288.825L33.5416 112.065L32.4095 113.714L289.85 290.474L290.982 288.825ZM23.4655 57.8393L40.1484 33.5415L38.4997 32.4094L21.8167 56.7073L23.4655 57.8393ZM33.5416 112.065C15.785 99.8738 11.2738 75.5959 23.4655 57.8393L21.8167 56.7073C8.9998 75.3744 13.7423 100.897 32.4095 113.714L33.5416 112.065ZM345.208 278.749C333.017 296.505 308.739 301.016 290.982 288.825L289.85 290.474C308.517 303.29 334.04 298.548 346.857 279.881L345.208 278.749ZM351.815 200.225C369.572 212.416 374.083 236.694 361.891 254.451L363.54 255.583C376.357 236.916 371.614 211.393 352.947 198.576L351.815 200.225ZM95.5066 21.8167C76.8395 8.99975 51.3166 13.7423 38.4997 32.4094L40.1484 33.5415C52.3401 15.7849 76.618 11.2737 94.3746 23.4654L95.5066 21.8167Z" fill="white" mask="url(#path-1-inside-1_0_1)"/>
<path d="M124.808 111.326L124.695 111.491C119.572 118.952 108.704 121.619 101.244 116.496L89.8259 108.657L109.637 79.8032L121.055 87.6427C128.515 92.7652 129.931 103.866 124.808 111.326ZM108.542 108.164L115.815 97.5704C116.126 97.117 116.051 96.5196 115.598 96.2083C115.145 95.897 114.56 96.0416 114.249 96.495L106.975 107.088C106.607 107.624 106.685 108.041 107.221 108.409C107.674 108.721 108.23 108.617 108.542 108.164ZM134.539 126.62C134.086 126.309 133.53 126.412 133.218 126.866L127.813 134.739L116.313 126.843L136.123 97.989L150.88 108.121C156.445 111.942 157.866 119.589 154.045 125.153C152.488 127.421 150.373 129 147.656 129.865C147.587 129.878 147.558 129.919 147.558 129.919C147.502 130.001 147.515 130.071 147.528 130.14C148.044 131.95 147.741 133.805 146.637 135.412L140.92 143.738L129.379 135.814L134.785 127.941C135.096 127.488 134.993 126.932 134.539 126.62ZM141.081 114.796L139.694 116.816C139.382 117.27 139.486 117.826 139.939 118.137C140.393 118.448 140.949 118.345 141.26 117.892L142.647 115.872C142.958 115.419 142.855 114.862 142.401 114.551C141.866 114.183 141.448 114.261 141.081 114.796ZM154.299 152.924L142.799 145.028L162.61 116.175L174.11 124.071L154.299 152.924ZM187.142 163.223C184 167.798 177.715 169.002 173.099 165.832L156.405 154.37L176.216 125.516L192.168 136.469C195.96 139.073 196.916 144.217 194.312 148.01C192.727 150.318 190.199 151.615 187.467 151.619C187.397 151.632 187.3 151.686 187.271 151.727C187.284 151.797 187.269 151.907 187.282 151.977C189.509 155.447 189.463 159.843 187.142 163.223ZM182.054 143.778L183.441 141.759C183.752 141.305 183.649 140.749 183.196 140.438C182.742 140.126 182.186 140.23 181.875 140.683L180.488 142.703C180.12 143.239 180.198 143.656 180.733 144.024C181.187 144.335 181.743 144.232 182.054 143.778ZM174.102 155.361L175.488 153.341C175.8 152.888 175.696 152.332 175.243 152.02C174.79 151.709 174.233 151.812 173.922 152.266L172.535 154.286C172.167 154.821 172.245 155.238 172.781 155.606C173.234 155.918 173.79 155.814 174.102 155.361ZM213.628 181.408C210.487 185.984 204.202 187.188 199.585 184.018L182.891 172.556L202.702 143.702L218.654 154.655C222.446 157.259 223.402 162.403 220.799 166.195C219.214 168.504 216.686 169.8 213.954 169.805C213.884 169.818 213.786 169.872 213.758 169.913C213.771 169.982 213.755 170.093 213.768 170.163C215.995 173.633 215.949 178.028 213.628 181.408ZM208.541 161.964L209.928 159.944C210.239 159.491 210.136 158.935 209.682 158.623C209.229 158.312 208.673 158.416 208.361 158.869L206.975 160.889C206.607 161.425 206.684 161.842 207.22 162.21C207.674 162.521 208.23 162.418 208.541 161.964ZM200.588 173.547L201.975 171.527C202.286 171.074 202.183 170.517 201.73 170.206C201.276 169.895 200.72 169.998 200.409 170.452L199.022 172.471C198.654 173.007 198.732 173.424 199.267 173.792C199.721 174.104 200.277 174 200.588 173.547ZM240.115 199.594C236.974 204.17 230.689 205.373 226.072 202.204L209.378 190.742L229.189 161.888L245.141 172.841C248.933 175.444 249.889 180.589 247.285 184.381C245.7 186.689 243.172 187.986 240.44 187.99C240.371 188.003 240.273 188.058 240.245 188.099C240.258 188.168 240.242 188.279 240.255 188.349C242.482 191.818 242.436 196.214 240.115 199.594ZM235.028 180.15L236.414 178.13C236.726 177.677 236.622 177.121 236.169 176.809C235.716 176.498 235.159 176.601 234.848 177.055L233.461 179.074C233.093 179.61 233.171 180.027 233.707 180.395C234.16 180.707 234.716 180.603 235.028 180.15ZM227.075 191.733L228.462 189.713C228.773 189.259 228.67 188.703 228.216 188.392C227.763 188.081 227.207 188.184 226.895 188.637L225.509 190.657C225.141 191.193 225.218 191.61 225.754 191.978C226.208 192.289 226.764 192.186 227.075 191.733ZM253.571 208.226L262.557 214.396L255.362 222.314L235.865 208.927L255.676 180.074L267.176 187.97L253.478 207.92C253.393 208.044 253.447 208.142 253.571 208.226ZM276.086 223.685L287.257 231.355L280.103 239.301L257.803 223.99L277.614 195.137L301.068 211.24L293.914 219.186L283.897 212.309C283.444 211.998 282.888 212.101 282.576 212.554C282.265 213.008 282.368 213.564 282.822 213.875L291.272 219.677L284.499 227.157L277.162 222.119C276.708 221.808 276.152 221.911 275.841 222.365C275.529 222.818 275.633 223.374 276.086 223.685Z" fill="white"/>
<defs>
<clipPath id="clip0_0_1">
<path d="M39.3241 32.9755C51.8284 14.7636 76.7287 10.1367 94.9406 22.641L352.381 199.4C370.593 211.905 375.22 236.805 362.716 255.017L346.033 279.315C333.528 297.527 308.628 302.153 290.416 289.649L32.9755 112.89C14.7637 100.386 10.1368 75.4852 22.6411 57.2733L39.3241 32.9755Z" fill="white"/>
</clipPath>
</defs>
</svg>
