                                                                                                                                                                                                                <svg width="449" height="253" viewBox="0 0 449 253" fill="none" xmlns="http://www.w3.org/2000/svg"><g clip-path="url(#a)"><mask id="c" fill="#fff"><path d="M13.68 187.357c-7.555-20.76 3.149-43.713 23.908-51.269L373.899 13.681c20.759-7.556 43.713 3.148 51.269 23.907l10.08 27.696c7.556 20.76-3.147 43.713-23.907 51.269L75.03 238.96c-20.76 7.556-43.713-3.148-51.269-23.907z"/></mask><path d="M13.68 187.357c-7.555-20.76 3.149-43.713 23.908-51.269L373.899 13.681c20.759-7.556 43.713 3.148 51.269 23.907l10.08 27.696c7.556 20.76-3.147 43.713-23.907 51.269L75.03 238.96c-20.76 7.556-43.713-3.148-51.269-23.907z" fill="#00F"/><g filter="url(#b)"><path d="m131.761 164.621-9.021 3.283c-.141.052-.201.18-.15.321l4.19 11.511-13.109 4.771-11.971-32.889 26.735-9.731 2.31 10.44-11.418 4.156c-.517.188-.756.7-.568 1.217s.701.756 1.218.568l9.632-3.506zm18.371-2.27c-.517.188-.756.7-.568 1.217l2.531 6.954-13.766 5.01-7.601-34.479 20.579-7.49 16.34 31.298-13.766 5.011-2.531-6.954a.92.92 0 0 0-1.218-.567m-6.142-14.1 1.453 3.994c.222.611.607.79 1.218.568.517-.188.756-.701.568-1.218l-1.454-3.994a.92.92 0 0 0-1.218-.567c-.61.222-.79.606-.567 1.217m41.204 11.129-.047.017c-9.491 3.454-20.001-1.447-23.456-10.938a18.16 18.16 0 0 1 .615-13.951c2.028-4.516 5.671-7.811 10.323-9.504l.047-.017c9.209-3.352 19.278 1.071 23.13 10.045l-16.304 5.934-1.881-5.169a.92.92 0 0 0-1.217-.567c-.517.188-.756.7-.568 1.217l4.412 12.122c.188.517.701.756 1.217.568.611-.222.791-.607.568-1.218l-1.881-5.168 16.304-5.934a18.24 18.24 0 0 1-.923 13.106c-2.062 4.422-5.688 7.764-10.339 9.457m28.922-22.712 12.733-4.635 2.31 10.44-25.419 9.252-11.97-32.89 26.734-9.73 2.31 10.44-11.418 4.155c-.516.188-.755.701-.567 1.218s.7.756 1.217.568l9.632-3.506 2.152 9.858-8.364 3.044c-.516.189-.755.701-.567 1.218s.701.756 1.217.568m43.046-15.135c1.898 5.215-.775 11.03-6.037 12.945l-19.029 6.926-11.97-32.889 18.183-6.618a8.28 8.28 0 0 1 10.638 4.96 8.24 8.24 0 0 1-1.04 7.668.4.4 0 0 0-.026.223c.064.03.146.106.21.136 4.118.204 7.668 2.796 9.071 6.649m-18.781-7.158-.838-2.303c-.188-.517-.701-.756-1.218-.568s-.756.701-.568 1.218l.838 2.302c.223.611.607.79 1.218.568.517-.188.756-.701.568-1.217m4.805 13.202-.838-2.302c-.188-.517-.701-.756-1.218-.568-.516.188-.755.701-.567 1.218l.838 2.302c.222.611.606.79 1.217.568.517-.188.756-.701.568-1.218m35.931-2.383-.047.018c-4.652 1.693-9.577 1.463-13.999-.599s-7.763-5.687-9.456-10.339c-3.438-9.444 1.446-20 10.937-23.455l.047-.017c4.651-1.693 9.56-1.511 14.016.645a18.16 18.16 0 0 1 9.439 10.292c3.455 9.491-1.446 20.001-10.937 23.455m-9.405-22.915 4.412 12.122c.223.611.607.79 1.218.568.517-.188.756-.701.568-1.218l-4.412-12.122c-.188-.517-.701-.756-1.218-.568s-.756.701-.568 1.218m45.056 9.939-.047.017c-4.651 1.693-9.577 1.464-13.998-.598-4.422-2.062-7.764-5.687-9.457-10.339-3.437-9.444 1.447-20 10.937-23.455l.047-.017c4.652-1.693 9.56-1.511 14.016.645a18.16 18.16 0 0 1 9.44 10.292c3.454 9.49-1.447 20.001-10.938 23.455m-9.404-22.915 4.412 12.122c.222.611.607.79 1.217.568.517-.188.756-.701.568-1.218l-4.412-12.122c-.188-.517-.701-.756-1.218-.568-.516.189-.755.701-.567 1.218m37.723-1.599a.92.92 0 0 0-.568 1.218l3.951 10.853-13.109 4.772-11.971-32.89 13.109-4.77 3.95 10.853c.188.517.701.756 1.218.568a.92.92 0 0 0 .568-1.218l-3.951-10.854 13.156-4.788 3.506 9.632c1.18 3.242-.506 6.942-3.795 8.139l-1.786.65a.92.92 0 0 0-.568 1.217c.223.611.607.79 1.218.568l1.785-.65c3.289-1.197 6.942.506 8.156 3.843l3.455 9.49-13.156 4.789-3.95-10.854c-.188-.517-.701-.756-1.218-.568" fill="#fff"/></g></g><path d="M37.93 137.028 374.24 14.621l-.684-1.88-336.31 122.407zM424.228 37.93l10.081 27.696 1.879-.684-10.081-27.696zm-13.229 77.683L74.688 238.02l.684 1.88 336.311-122.408zM24.701 214.711l-10.08-27.696-1.88.684 10.08 27.696zm49.987 23.309c-20.24 7.367-42.62-3.069-49.987-23.309l-1.88.684c7.745 21.278 31.273 32.249 52.55 24.505zM434.309 65.626c7.367 20.24-3.069 42.62-23.31 49.987l.684 1.879c21.279-7.744 32.25-31.272 24.505-52.55zM374.241 14.62c20.24-7.366 42.62 3.07 49.987 23.31l1.879-.684c-7.744-21.278-31.272-32.25-52.55-24.505zM37.246 135.149c-21.278 7.745-32.25 31.273-24.505 52.551l1.88-.684c-7.367-20.241 3.069-42.62 23.309-49.987z" fill="#fff" mask="url(#c)"/><defs><clipPath id="a"><path d="M13.68 187.357c-7.555-20.76 3.149-43.713 23.908-51.269L373.899 13.681c20.759-7.556 43.713 3.148 51.269 23.907l10.08 27.696c7.556 20.76-3.147 43.713-23.907 51.269L75.03 238.96c-20.76 7.556-43.713-3.148-51.269-23.907z" fill="#fff"/></clipPath><filter id="b" x="97.444" y="60.743" width="268.258" height="132.563" filterUnits="userSpaceOnUse" color-interpolation-filters="sRGB"><feFlood flood-opacity="0" result="BackgroundImageFix"/><feColorMatrix in="SourceAlpha" values="0 0 0 0 0 0 0 0 0 0 0 0 0 0 0 0 0 0 127 0" result="hardAlpha"/><feOffset dy="4"/><feGaussianBlur stdDeviation="2"/><feComposite in2="hardAlpha" operator="out"/><feColorMatrix values="0 0 0 0 0 0 0 0 0 0 0 0 0 0 0 0 0 0 0.25 0"/><feBlend in2="BackgroundImageFix" result="effect1_dropShadow_2_527"/><feColorMatrix in="SourceAlpha" values="0 0 0 0 0 0 0 0 0 0 0 0 0 0 0 0 0 0 127 0" result="hardAlpha"/><feOffset dy="4"/><feGaussianBlur stdDeviation="2"/><feComposite in2="hardAlpha" operator="out"/><feColorMatrix values="0 0 0 0 0 0 0 0 0 0 0 0 0 0 0 0 0 0 0.25 0"/><feBlend in2="effect1_dropShadow_2_527" result="effect2_dropShadow_2_527"/><feBlend in="SourceGraphic" in2="effect2_dropShadow_2_527" result="shape"/></filter></defs></svg>