<svg width="466" height="238" viewBox="0 0 466 238" fill="none" xmlns="http://www.w3.org/2000/svg">
  <g clip-path="url(#a)">
    <mask id="b" fill="#fff">
      <path d="M11.695 170.726c-6.459-21.126 5.431-43.488 26.557-49.947L395.05 11.695c21.127-6.46 43.489 5.431 49.947 26.557l8.618 28.186c6.459 21.126-5.431 43.488-26.558 49.947L70.259 225.469c-21.126 6.459-43.488-5.431-49.947-26.557z"/>
    </mask>
    <path d="M11.695 170.726c-6.459-21.126 5.431-43.488 26.557-49.947L395.05 11.695c21.127-6.46 43.489 5.431 49.947 26.557l8.618 28.186c6.459 21.126-5.431 43.488-26.558 49.947L70.259 225.469c-21.126 6.459-43.488-5.431-49.947-26.557z" fill="#00F"/>
    <path d="m109.117 170.012-13.34 4.079-10.233-33.471 13.34-4.078zm7.563-20.768 7.551 16.148-12.671 3.874-10.233-33.471 18.6-5.687 7.716 16.516c.179.416.726.667 1.109.55.048-.015.129-.092.177-.107.482-.304.618-.712.501-1.094l-.043-.144-7.595-16.291 12.671-3.874 10.233 33.471-18.648 5.701-7.624-16.387c-.268-.702-.837-.685-1.172-.583-.096.029-.894.326-.616 1.234zm37.829-15.33 6.924-1.124c4.828-.796 9.465 2.23 10.854 6.773 1.725 5.642-1.524 11.602-7.071 13.298l-18.361 5.614-4.093-13.389 15.164-2.388.144-.044c.861-.263.66-1.09.631-1.186-.103-.334-.44-.754-1.076-.612l-7.035 1.105c-4.732.767-9.465-2.23-10.854-6.772a10.627 10.627 0 0 1 7.071-13.299l18.361-5.613 4.079 13.34-15.055 2.407c-.095.029-.158-.004-.253.025-.67.205-.488 1.142-.473 1.19.102.335.425.707 1.043.675m23.116-10.362-6.837 2.091-4.438-9.728 30.171-9.224 1.761 10.546-6.838 2.091c-.143.043-.224.12-.181.264l7.076 23.142-13.341 4.079-7.075-23.143c-.044-.143-.154-.162-.298-.118m39.726 4.638c-.526.161-.791.661-.631 1.187l2.164 7.076-14.01 4.283-5.786-34.83 20.943-6.403 14.68 32.111-14.01 4.284-2.164-7.077c-.16-.526-.66-.792-1.186-.631m-5.396-14.401 1.242 4.064c.19.622.565.821 1.187.631a.92.92 0 0 0 .63-1.186l-1.242-4.065c-.161-.526-.66-.791-1.186-.631-.622.191-.821.565-.631 1.187m39.656 13.547c-9.324 2.851-18.876-2.228-21.727-11.552l-.263-.861c-2.938-9.611 2.492-19.898 12.15-22.85l.048-.015c9.324-2.85 19.292 2.049 22.525 11.256l-16.544 5.058-1.608-5.26c-.161-.526-.66-.791-1.186-.631a.92.92 0 0 0-.631 1.187l3.772 12.336c.161.526.66.792 1.186.631.622-.19.821-.565.631-1.186l-1.608-5.26 16.592-5.073 4.824 15.779-9.563 2.924-.994-3.252c-.044-.143-.107-.176-.202-.147l-.096.029a.4.4 0 0 0-.162.154c-.649 3.179-3.127 5.505-7.144 6.733m31.524-21.506c-.526.161-.792.66-.631 1.186l2.792 9.133-13.34 4.079-10.233-33.471 17.117-5.234c6.455-1.973 13.323 1.678 15.297 8.134.804 2.63.722 5.269-.294 7.932-.033.063-.018.11-.018.11.029.096.091.13.154.162 1.737.724 2.999 2.116 3.569 3.981l2.953 9.658-13.388 4.093-2.792-9.132c-.161-.526-.66-.792-1.186-.631m-5.176-12.482.716 2.343a.92.92 0 0 0 1.187.63c.526-.16.791-.66.63-1.186l-.716-2.343c-.161-.526-.66-.791-1.186-.63-.622.19-.821.564-.631 1.186m36.003 5.305c-.526.161-.791.66-.63 1.186l2.163 7.077-14.01 4.283-5.786-34.83 20.943-6.403 14.68 32.111-14.01 4.284-2.163-7.077a.92.92 0 0 0-1.187-.63m-5.396-14.401 1.242 4.064c.19.622.565.82 1.187.63.526-.16.791-.66.63-1.186l-1.242-4.064c-.161-.526-.66-.791-1.186-.63-.622.19-.821.564-.631 1.186m30.237-8.46c-.622.19-.821.564-.631 1.186l6.432 21.039-12.814 3.917-5.786-34.83 9.898-3.026c2.247-.687 4.494.508 5.182 2.755.16.526.66.792 1.186.631.621-.19.821-.564.631-1.186-.337-1.1-.232-2.125.332-3.187.532-.999 1.371-1.674 2.471-2.01l9.85-3.011 14.727 32.096-12.814 3.918-6.432-21.039a.92.92 0 0 0-1.187-.63c-.621.19-.82.564-.63 1.186l6.432 21.039-9.229 2.821-6.432-21.039c-.161-.526-.66-.791-1.186-.63" fill="#fff"/>
  </g>
  <path d="M38.545 121.735 395.342 12.651l-.585-1.912L37.96 119.822zm405.495-83.19 8.618 28.186 1.912-.585-8.617-28.186zm-17.276 76.884L69.967 224.513l.585 1.912 356.797-109.084zm-405.495 83.19-8.618-28.186-1.912.585 8.617 28.186zm48.698 25.894c-20.598 6.297-42.401-5.296-48.698-25.894l-1.913.585c6.62 21.654 29.541 33.842 51.196 27.221zM452.658 66.731c6.297 20.597-5.296 42.4-25.894 48.698l.585 1.912c21.654-6.62 33.841-29.541 27.221-51.195zm-57.316-54.08c20.598-6.297 42.401 5.296 48.698 25.894l1.913-.585c-6.621-21.655-29.542-33.842-51.196-27.221zM37.96 119.822c-21.654 6.621-33.842 29.542-27.221 51.196l1.912-.585c-6.297-20.598 5.296-42.401 25.894-48.698z" fill="#fff" mask="url(#b)"/>
  <defs>
    <clipPath id="a">
      <path d="M11.695 170.726c-6.459-21.126 5.431-43.488 26.557-49.947L395.05 11.695c21.127-6.46 43.489 5.431 49.947 26.557l8.618 28.186c6.459 21.126-5.431 43.488-26.558 49.947L70.259 225.469c-21.126 6.459-43.488-5.431-49.947-26.557z" fill="#fff"/>
    </clipPath>
  </defs>
</svg>
