<svg width="423" height="204" viewBox="0 0 423 204" fill="none" xmlns="http://www.w3.org/2000/svg"><g clip-path="url(#a)"><mask id="b" fill="#fff"><path d="M1.655 125.105c-4.593-21.609 9.201-42.85 30.81-47.443L358.71 8.316c21.608-4.593 42.849 9.201 47.442 30.81l8.328 39.183c4.594 21.609-9.2 42.849-30.809 47.442L57.426 195.097c-21.608 4.593-42.849-9.201-47.442-30.809z"/></mask><path d="M1.655 125.105c-4.593-21.609 9.201-42.85 30.81-47.443L358.71 8.316c21.608-4.593 42.849 9.201 47.442 30.81l8.328 39.183c4.594 21.609-9.2 42.849-30.809 47.442L57.426 195.097c-21.608 4.593-42.849-9.201-47.442-30.809z" fill="#00F"/><path d="m111.786 125.56 10.662-2.267.786 10.67-23.133 4.917-7.277-34.235 13.645-2.9 5.031 23.671c.031.147.14.175.286.144m27.99 4.887-13.646 2.901-7.277-34.236 13.646-2.9zm9.343-20.03 6.115 16.744-12.96 2.755-7.277-34.235 19.025-4.044 6.247 17.126c.142.429.666.727 1.057.644.049-.011.136-.08.185-.091.507-.261.679-.655.595-1.046l-.031-.147-6.146-16.891 12.961-2.755 7.276 34.235-19.073 4.054-6.167-16.989c-.205-.723-.774-.755-1.117-.683-.098.021-.919.247-.721 1.176zm41.476-3.551c-.538.114-.846.589-.731 1.127l2.401 11.297-13.645 2.901-7.277-34.236 13.645-2.9 2.401 11.298c.115.538.589.846 1.127.731a.92.92 0 0 0 .732-1.126l-2.401-11.298 13.694-2.91 2.131 10.025c.717 3.375-1.468 6.804-4.891 7.532l-1.859.395a.92.92 0 0 0-.731 1.127c.135.635.491.866 1.126.731l1.859-.395c3.423-.727 6.804 1.468 7.542 4.94l2.1 9.879-13.694 2.911-2.402-11.297c-.114-.538-.589-.847-1.127-.732m32.061-4.872 13.254-2.818.834 10.66-26.459 5.624-7.276-34.235 27.828-5.915.834 10.659-11.884 2.526a.92.92 0 0 0-.732 1.127c.114.538.589.846 1.127.732l10.026-2.132.759 10.063-8.706 1.85c-.538.114-.846.589-.732 1.127.115.538.589.846 1.127.732m43.173-16.334.042.196c1.882 8.852-3.67 18.569-12.522 20.45l-13.547 2.88-7.277-34.235 13.547-2.88c8.853-1.881 17.876 4.737 19.757 13.59m-13.495 9.616-2.672-12.569c-.114-.538-.599-.895-1.137-.78s-.836.637-.721 1.175l2.671 12.57c.135.635.491.866 1.127.731a.92.92 0 0 0 .732-1.127m32.54 4.33-13.645 2.9-7.277-34.235 13.645-2.9zm9.343-20.03 6.115 16.744-12.96 2.755-7.277-34.236 19.025-4.044 6.247 17.126c.143.43.666.727 1.057.644.049-.01.136-.08.185-.09.507-.261.679-.656.596-1.047l-.031-.147-6.147-16.89 12.961-2.756 7.277 34.235-19.074 4.055-6.167-16.99c-.205-.723-.774-.755-1.116-.682-.098.02-.919.246-.722 1.175z" fill="#fff"/></g><path d="M32.673 78.64 358.918 9.295l-.415-1.957L32.257 76.684zm372.502-39.306 8.328 39.183 1.957-.416-8.329-39.183zm-21.711 85.439L57.218 194.119l.416 1.956 326.246-69.346zM10.962 164.08l-8.329-39.183-1.956.415 8.329 39.183zm46.256 30.039c-21.068 4.478-41.778-8.971-46.256-30.039l-1.956.415c4.708 22.149 26.48 36.288 48.628 31.58zM413.503 78.517c4.479 21.068-8.97 41.778-30.039 46.256l.416 1.956c22.149-4.708 36.288-26.479 31.58-48.628zM358.918 9.295c21.069-4.479 41.779 8.97 46.257 30.039l1.956-.416c-4.708-22.149-26.48-36.288-48.628-31.58zM32.257 76.684c-22.149 4.708-36.288 26.48-31.58 48.628l1.956-.415c-4.478-21.069 8.971-41.779 30.04-46.257z" fill="#fff" mask="url(#b)"/><defs><clipPath id="a"><path d="M1.655 125.105c-4.593-21.609 9.201-42.85 30.81-47.443L358.71 8.316c21.608-4.593 42.849 9.201 47.442 30.81l8.328 39.183c4.594 21.609-9.2 42.849-30.809 47.442L57.426 195.097c-21.608 4.593-42.849-9.201-47.442-30.809z" fill="#fff"/></clipPath></defs></svg>